<svg width="554" height="328" viewBox="0 0 554 328" fill="none" xmlns="http://www.w3.org/2000/svg">
<g clip-path="url(#clip0_40_113)">
<path d="M367.347 87.2729C358.422 91.481 349.844 95.5412 341.248 99.5628C338.861 100.68 335.942 102.527 334.286 99.19C332.572 95.7344 335.92 94.7462 338.294 93.6198C349.255 88.4174 360.225 83.2327 371.7 77.8013C370.536 76.7565 369.835 75.9338 368.964 75.3727C350.489 63.4626 332.028 51.5288 313.436 39.8016C312.027 38.9125 309.199 38.7457 307.816 39.5669C284.624 53.3463 261.556 67.3345 238.468 81.2902C237.808 81.6897 237.239 82.2412 235.965 83.2413C244.5 87.1551 252.439 90.7982 260.381 94.4347C261.441 94.9199 262.496 95.4241 263.587 95.8286C266.209 96.8003 268.497 98.4845 266.69 101.249C265.993 102.315 262.51 102.429 260.751 101.768C255.306 99.7196 249.645 97.7432 244.858 94.5537C233.956 87.2898 223.946 87.2456 213.99 96.0601C212.151 97.6888 209.353 99.1405 207.567 96.0413C205.777 92.9371 208.69 91.6662 210.749 90.3405C213.904 88.3082 217.118 86.3652 221.151 83.8596C210.247 78.9274 200.325 74.3609 190.306 70.0188C189.213 69.545 187.408 70.0452 186.189 70.6291C157.365 84.4435 128.601 98.3825 99.7232 112.082C97.9474 112.925 94.1587 112.835 93.3347 111.703C91.4607 109.128 93.7463 107.342 96.2683 106.139C122.713 93.5182 149.134 80.8479 175.569 68.2068C178.121 66.9865 180.732 65.8915 183.298 64.6995C187.465 62.7638 191.367 62.7977 195.673 64.9058C205.092 69.5163 214.676 73.8152 224.365 77.8218C226.412 78.6682 229.71 78.5715 231.573 77.4644C255.763 63.0859 279.858 48.543 303.821 33.7895C308.517 30.8985 312.174 30.549 316.986 33.7417C336.132 46.4468 355.606 58.6568 374.793 71.3033C378.35 73.648 381.138 73.818 384.787 71.8409C390.047 68.9901 395.62 66.7215 400.985 64.0545C404.686 62.2148 408.032 62.1347 411.85 64.1529C430.69 74.1119 449.651 83.8442 468.569 93.656C468.865 93.8094 469.178 93.9336 469.458 94.1108C471.629 95.4837 475.114 96.5836 472.877 99.8457C472.157 100.896 468.256 100.825 466.485 99.9305C447.91 90.5469 429.424 80.9813 411.038 71.2294C407.713 69.4656 405.057 69.3122 401.771 71.0688C396.987 73.6254 391.966 75.7382 386.389 78.3476C388.827 80.0528 390.899 81.0024 392.206 82.5836C393.142 83.7164 393.056 85.6949 393.426 87.296C391.918 87.5407 390.413 87.8144 388.898 88.003C388.628 88.0366 388.251 87.7789 388.031 87.5516C381.39 80.6866 374.566 82.7455 367.347 87.2729Z" fill="black"/>
<path d="M376 297.96C281.717 297.96 187.935 297.96 92.8219 297.96C92.8219 292.198 92.8582 286.456 92.8153 280.714C92.6782 262.389 92.4109 244.064 92.5073 225.741C92.5174 223.837 94.4311 220.51 95.7886 220.332C99.0922 219.897 99.227 222.917 99.2256 225.596C99.2147 245.422 99.2639 265.249 99.32 285.074C99.3255 287.029 99.5046 288.982 99.6291 291.452C101.794 291.452 103.579 291.454 105.364 291.452C219.491 291.306 333.617 291.162 447.743 291.008C452.24 291.002 456.742 290.755 461.233 290.889C465.314 291.011 466.738 289.345 466.709 285.246C466.576 266.254 466.688 247.26 466.72 228.266C466.723 226.768 466.382 225.098 466.93 223.82C467.465 222.574 468.985 220.875 469.98 220.934C471.083 221 472.355 222.685 473.032 223.945C473.523 224.857 473.18 226.227 473.181 227.392C473.185 248.385 473.19 269.378 473.185 290.37C473.183 297.374 472.592 297.987 465.466 297.988C435.81 297.993 406.155 297.972 376 297.96Z" fill="black"/>
<path d="M229.207 172C229.207 182.982 229.207 193.463 229.207 204.275C226.452 204.275 224.023 204.275 221.279 204.275C220.782 202.939 220.216 201.413 219.923 200.627C214.274 202.27 208.751 204.59 203.015 205.4C190.175 207.214 179.203 199.701 175.655 187.278C172.895 177.61 172.974 167.834 175.766 158.213C180.375 142.333 196.428 135.025 213.575 140.786C215.281 141.359 216.962 142.007 219.18 142.81C219.18 137.365 219.18 132.261 219.18 127.156C219.18 122.181 219.18 117.206 219.18 111.931C222.607 111.931 225.695 111.931 229.207 111.931C229.207 131.903 229.207 151.702 229.207 172ZM186.894 156.666C183.066 165.96 183.298 175.492 185.612 185.013C186.987 190.669 190.473 194.912 196.288 196.466C203.284 198.335 210.19 197.767 216.423 193.869C217.781 193.019 219.032 190.816 219.062 189.212C219.285 177.586 219.232 165.953 219.108 154.325C219.095 153.064 218.425 151.329 217.466 150.635C208.862 144.41 193.249 147.235 186.894 156.666Z" fill="black"/>
<path d="M91.8172 195.116C92.926 198.275 93.9101 201.064 94.9476 204.004C94.2748 204.257 93.8585 204.537 93.4307 204.556C84.5937 204.939 84.5979 204.932 81.6088 196.732C79.8448 191.893 78.2535 186.976 76.1735 182.276C75.5596 180.888 73.568 179.249 72.1666 179.21C62.5113 178.943 52.8426 178.966 43.1852 179.193C41.871 179.223 39.9233 180.635 39.4191 181.874C37.2935 187.102 35.6186 192.511 33.7511 197.844C31.0621 205.524 31.0518 205.52 21.6909 204.014C24.102 197.428 26.4788 190.937 28.8542 184.446C36.5634 163.379 44.4185 142.362 51.8503 121.198C53.2411 117.237 55.5606 117.414 58.6384 117.286C61.8071 117.153 63.7117 117.793 64.9309 121.199C73.7234 145.76 82.7441 170.24 91.8172 195.116ZM65.4219 170.32C67.3286 170.32 69.2353 170.32 71.9217 170.32C67.0866 156.963 62.5713 144.488 57.6594 130.919C52.6701 144.666 48.1505 157.119 43.3596 170.32C50.887 170.32 57.6652 170.32 65.4219 170.32Z" fill="black"/>
<path d="M107.428 189.986C107.428 173.198 107.428 156.907 107.428 140.345C110.669 140.345 113.431 140.345 116.586 140.345C116.789 141.767 117.014 143.333 117.319 145.461C119.336 144.524 121.137 143.328 123.114 142.837C128.877 141.405 134.677 139.403 140.524 139.173C152.542 138.698 158.053 144.226 158.225 156.253C158.453 172.2 158.281 188.152 158.281 204.357C154.911 204.357 152.004 204.357 148.48 204.357C148.48 201.343 148.485 198.563 148.479 195.784C148.455 183.126 148.583 170.465 148.339 157.812C148.202 150.729 145.589 147.841 138.616 147.974C132.9 148.083 127.195 149.526 121.519 150.561C118.316 151.146 117.134 153.067 117.192 156.575C117.428 170.729 117.29 184.889 117.29 199.046C117.29 200.684 117.29 202.322 117.29 204.286C114.008 204.286 111.104 204.286 107.428 204.286C107.428 199.675 107.428 195.079 107.428 189.986Z" fill="black"/>
<path d="M374.822 193.763C378.373 192.816 378.455 190.444 378.442 187.781C378.371 173.786 378.409 159.79 378.409 145.795C378.409 144.005 378.409 142.216 378.409 140.268C381.959 140.268 384.906 140.268 388.062 140.268C388.062 161.581 388.062 182.698 388.062 204.214C385.45 204.214 382.895 204.214 380.016 204.214C379.579 202.648 379.098 200.923 378.779 199.775C372.847 201.647 367.029 204.267 360.946 205.244C346.499 207.566 338.145 200.18 338.055 185.678C337.961 170.704 338.034 155.73 338.034 140.415C341.372 140.415 344.423 140.415 348.06 140.415C348.06 147.376 348.054 154.317 348.061 161.258C348.07 169.755 347.926 178.256 348.159 186.747C348.349 193.71 351.525 197.139 358.413 196.845C363.787 196.617 369.099 194.952 374.822 193.763Z" fill="black"/>
<path d="M273.55 167.729C275.8 167.385 277.603 167.104 279.951 166.737C279.951 163.893 280.109 160.942 279.918 158.013C279.517 151.832 276.516 148.455 270.23 148.086C263.326 147.68 256.379 147.993 249.23 147.993C248.129 142.361 248.073 141.683 254.592 140.791C261.736 139.814 269.155 139.32 276.279 140.138C284.701 141.106 289.65 147.116 289.848 155.521C290.193 170.163 290.007 184.818 290.043 199.467C290.047 200.952 290.044 202.437 290.044 204.264C287.361 204.264 284.938 204.264 282.293 204.264C281.809 202.738 281.269 201.036 280.633 199.032C273.713 205.384 265.64 206.738 256.886 204.982C248.972 203.395 244.056 197.911 243.174 189.918C242.252 181.563 245.612 174.321 253.162 171.729C259.511 169.549 266.435 169.04 273.55 167.729ZM273.783 175.012C270.001 175.547 266.171 175.863 262.446 176.665C256.033 178.047 253.416 181.537 253.564 187.897C253.688 193.201 256.972 197.227 263.058 197.42C267.851 197.571 272.752 196.091 277.488 194.88C278.578 194.601 279.843 192.489 279.909 191.164C280.182 185.709 280.023 180.232 280.023 174.521C277.975 174.688 276.352 174.82 273.783 175.012Z" fill="black"/>
<path d="M523.499 141.236C529.065 143.938 532.523 148.264 532.652 153.85C533.039 170.608 532.791 187.38 532.791 204.376C530.233 204.376 527.946 204.376 525.359 204.376C524.856 202.807 524.31 201.106 523.66 199.081C516.945 205.103 509.125 206.713 500.513 205.085C492.012 203.478 486.912 197.965 486.144 189.545C485.346 180.81 489.184 173.538 497.41 171.159C504.855 169.007 512.748 168.405 520.445 167.126C521.097 167.017 521.756 166.956 523.014 166.797C523.014 164.724 523.041 162.615 523.01 160.507C522.875 151.455 519.902 148.122 510.734 147.875C504.639 147.711 498.521 148.395 492.361 148.702C491.149 142.322 491.136 142.224 497.599 140.634C506.135 138.535 514.682 137.984 523.499 141.236ZM514.473 197.159C517.754 195.983 522.436 196.242 522.889 191.614C523.436 186.026 523.018 180.344 523.018 174.177C516.458 175.122 510.331 175.705 504.343 176.956C498.796 178.115 496.353 182.051 496.575 188.059C496.753 192.871 499.591 196.364 504.779 197.266C507.661 197.767 510.7 197.363 514.473 197.159Z" fill="black"/>
<path d="M431.558 204.79C424.059 204.521 416.849 204.829 409.899 203.628C402.525 202.355 402.555 201.61 403.256 194.619C410.936 195.39 418.609 196.829 426.266 196.75C434.617 196.663 439.026 190.464 435.879 183.946C434.667 181.437 431.689 179.283 429.015 178.089C424.496 176.072 419.507 175.142 414.845 173.407C406.452 170.285 403.18 164.794 403.802 155.525C404.333 147.611 408.999 141.414 417.031 140.222C423.315 139.29 429.948 139.48 436.268 140.336C443.39 141.3 443.71 142.497 442.708 149.269C435.733 148.785 428.836 148.003 421.933 147.935C417.399 147.89 413.925 150.236 413.163 155.176C412.441 159.852 414.809 163.333 420.136 165.241C424.04 166.639 428.063 167.699 432.028 168.93C442.5 172.18 446.34 176.698 446.523 185.958C446.716 195.668 442.312 201.337 431.558 204.79Z" fill="black"/>
<path d="M319.836 130.002C319.836 154.934 319.836 179.366 319.836 204.205C316.546 204.205 313.498 204.205 310.122 204.205C310.122 173.499 310.122 142.824 310.122 111.897C313.239 111.897 316.321 111.897 319.836 111.897C319.836 117.943 319.836 123.723 319.836 130.002Z" fill="black"/>
<path d="M465.165 204.615C463.78 203.641 462.038 202.676 462.03 201.696C461.868 182.555 461.906 163.412 461.915 144.269C461.916 143.122 462.024 141.974 462.099 140.503C465.137 140.503 468.057 140.503 471.411 140.503C471.411 161.578 471.411 182.756 471.411 204.617C469.496 204.617 467.555 204.617 465.165 204.615Z" fill="black"/>
<path d="M293.408 262.715C293.408 264.66 293.408 266.141 293.408 267.773C291.631 267.773 290.207 267.773 288.618 267.773C288.618 258.081 288.618 248.641 288.618 238.712C297.057 238.136 297.198 247.153 302.336 249.89C307.536 247.231 307.675 238.207 316.024 238.608C316.024 248.446 316.024 257.904 316.024 267.745C314.666 267.839 313.269 267.936 311.405 268.065C311.405 261.335 311.405 254.914 311.405 248.494C311.067 248.331 310.729 248.169 310.391 248.006C307.789 251.262 305.187 254.518 302.385 258.024C299.705 254.662 297.141 251.445 294.578 248.228C294.188 248.254 293.798 248.28 293.408 248.307C293.408 252.955 293.408 257.603 293.408 262.715Z" fill="black"/>
<path d="M240.11 250.754C241.192 248.898 241.99 247.093 242.269 245.211C242.555 243.283 242.332 241.28 242.332 238.922C244.041 238.79 245.44 238.683 247.21 238.546C247.21 248.502 247.21 258.061 247.21 267.832C245.688 267.832 244.246 267.832 242.254 267.832C242.254 263.737 242.254 259.821 242.254 255.67C237.609 255.67 233.51 255.67 228.82 255.67C228.82 259.637 228.82 263.541 228.82 267.757C226.841 267.867 225.43 267.945 223.686 268.042C223.686 258.322 223.686 248.905 223.686 238.893C225.03 238.809 226.54 238.714 228.66 238.58C228.66 242.875 228.66 246.615 228.66 250.771C232.685 250.771 236.142 250.771 240.11 250.754Z" fill="black"/>
<path d="M344.104 265.183C343.237 266.441 342.375 267.892 341.461 267.925C335.659 268.135 329.846 268.032 323.717 268.032C323.717 258.221 323.717 248.683 323.717 238.856C330.373 238.856 336.806 238.856 343.75 238.856C343.862 240.048 343.988 241.382 344.151 243.104C338.959 243.104 334.186 243.104 328.994 243.104C328.994 245.645 328.994 247.85 328.994 250.554C333.549 250.554 338.116 250.554 342.555 250.554C343.744 255.379 343.744 255.383 338.459 255.398C335.473 255.406 332.486 255.399 329.034 255.399C329.034 257.983 329.034 260.32 329.034 263.222C332.669 263.222 336.292 263.084 339.894 263.291C341.314 263.372 342.69 264.221 344.104 265.183Z" fill="black"/>
<path d="M258.368 241.266C269.898 234.29 282.423 239.896 283.118 251.983C283.539 259.315 280.059 265.205 273.918 267.552C267.369 270.055 259.906 268.066 255.933 262.759C251.842 257.295 251.869 249.326 256.038 243.679C256.625 242.883 257.392 242.22 258.368 241.266ZM258.281 254.228C258.434 254.874 258.561 255.527 258.744 256.165C260.442 262.082 265.178 264.824 270.869 263.196C276.434 261.604 279.234 255.615 277.239 249.573C275.51 244.337 270.135 241.584 264.891 243.382C260.142 245.01 258.581 248.873 258.281 254.228Z" fill="black"/>
<path d="M471.515 126.632C468.272 126.991 465.336 126.991 462.111 126.991C462.111 123.8 462.111 120.727 462.111 117.3C465.053 117.3 468.113 117.3 471.822 117.3C471.822 120.162 471.822 123.218 471.515 126.632Z" fill="black"/>
</g>
<defs>
<clipPath id="clip0_40_113">
<rect width="554" height="328" fill="white"/>
</clipPath>
</defs>
</svg>
