<?xml version="1.0" encoding="utf-8"?>
<!-- Generator: Adobe Illustrator 16.0.3, SVG Export Plug-In . SVG Version: 6.00 Build 0)  -->
<!DOCTYPE svg PUBLIC "-//W3C//DTD SVG 1.1//EN" "http://www.w3.org/Graphics/SVG/1.1/DTD/svg11.dtd">
<svg version="1.1" id="Vrstva_1" xmlns="http://www.w3.org/2000/svg" xmlns:xlink="http://www.w3.org/1999/xlink" x="0px" y="0px"
	width="595.28px" height="241.89px" viewBox="250 370 100 100" enable-background="new 0 0 595.28 841.89" xml:space="preserve">
<g>
	<path fill="#FFFFFF" d="M306.888,424.74v9.65h11.158v-9.65h3.012v23.068h-3.012v-10.816h-11.158v10.816h-2.978V424.74H306.888z"/>
	<path fill="#FFFFFF" d="M345.942,436.035c0,7.939-4.826,12.148-10.713,12.148c-6.092,0-10.371-4.723-10.371-11.705
		c0-7.324,4.553-12.115,10.713-12.115C341.869,424.363,345.942,429.189,345.942,436.035z M328.042,436.41
		c0,4.93,2.67,9.344,7.358,9.344c4.724,0,7.393-4.346,7.393-9.582c0-4.586-2.396-9.379-7.358-9.379
		C330.507,426.793,328.042,431.346,328.042,436.41z"/>
	<path fill="#FFFFFF" d="M369.253,437.678c-0.172-3.219-0.377-7.086-0.343-9.961h-0.103c-0.787,2.705-1.746,5.58-2.909,8.762
		l-4.073,11.193h-2.258l-3.73-10.986c-1.096-3.252-2.02-6.23-2.67-8.969h-0.068c-0.068,2.875-0.24,6.742-0.445,10.199l-0.616,9.893
		h-2.841l1.609-23.068h3.799l3.936,11.156c0.959,2.842,1.746,5.375,2.327,7.77h0.103c0.582-2.326,1.404-4.859,2.43-7.77
		l4.107-11.156h3.799l1.438,23.068h-2.908L369.253,437.678z"/>
	<path fill="#FFFFFF" d="M389.278,436.992h-8.968v8.316h9.994v2.5h-12.972V424.74h12.458v2.498h-9.48v7.291h8.968V436.992z"/>
</g>
<g>
	<path fill="#FFFFFF" d="M251.843,411.195v-19.136h3.287v26.873l-19.479-20.334v19.272h-3.184v-27.078L251.843,411.195z"/>
	<path fill="#FFFFFF" d="M264.746,392.059c6.333,0,14.31,2.945,14.515,12.563c0.102,6.573-3.971,13.248-14.207,13.248h-5.683
		v-25.811H264.746z M262.589,414.927h1.951c7.566,0,11.503-4.211,11.434-10.03c-0.068-6.299-4.347-9.893-11.776-9.893h-1.609
		V414.927z"/>
	<path fill="#FFFFFF" d="M309.655,392.059v22.868h7.84v2.943h-11.058v-25.811H309.655z"/>
	<path fill="#FFFFFF" d="M338.067,392.059v16.398c0,5.922-3.869,10.029-9.482,9.961c-6.744-0.068-9.414-5.442-9.414-9.79v-16.569
		h3.184v15.781c0,3.287,1.232,7.566,6.23,7.566c4.416,0,6.299-3.082,6.299-7.84v-15.507H338.067z"/>
	<path fill="#FFFFFF" d="M349.842,394.455c-2.602,0-4.279,2.02-4.279,3.561c-0.068,1.472,0.821,2.602,2.534,3.423
		c1.607,0.72,7.086,2.122,8.626,5.683c0.411,0.993,0.685,2.123,0.685,3.32c0,4.485-3.766,7.84-8.147,7.977
		c-4.04,0.068-7.565-2.807-8.045-7.223l3.218-0.685c0.068,3.423,2.739,4.896,4.998,4.896c2.156,0,4.348-1.473,4.689-4.279
		c0.549-3.629-2.396-4.896-5.135-5.957c-3.354-1.403-6.709-2.943-6.641-7.223c0-2.943,2.705-6.436,7.634-6.47
		c2.808,0,5.135,1.334,6.607,3.937l-2.534,1.541C352.718,394.66,350.903,394.455,349.842,394.455z"/>
	<path fill="#FFFFFF" d="M364.013,392.059v25.811h-3.219v-25.811H364.013z"/>
	<g>
		<polygon fill="#FFFFFF" points="291.982,391.109 279.658,418.049 283.149,418.049 285.155,413.643 285.155,413.643 
			288.95,405.147 288.95,405.147 291.982,398.195 300.849,418.049 304.34,418.049 		"/>
		<rect x="290.074" y="409.785" fill="#F8CA00" width="3.85" height="3.85"/>
	</g>
	<g>
		<polygon fill="#FFFFFF" points="378.306,391.109 365.981,418.049 369.473,418.049 371.478,413.643 371.478,413.643 
			375.273,405.147 375.273,405.147 378.306,398.195 387.171,418.049 390.663,418.049 		"/>
		<rect x="376.397" y="409.785" fill="#F8CA00" width="3.85" height="3.85"/>
	</g>
	<g>
		<polygon fill="#FFFFFF" points="218.303,391.109 205.979,418.049 209.471,418.049 211.476,413.643 211.476,413.643 
			215.271,405.147 215.271,405.147 218.303,398.195 227.169,418.049 230.661,418.049 		"/>
		<rect x="216.395" y="409.785" fill="#F8CA00" width="3.85" height="3.85"/>
	</g>
</g>
<g>
	<g>
		<g>
			<path fill="#016635" d="M218.77,433.594c-3.824,0.002-7.862-1.088-12.138-4.109l-1.995-1.41l2.819-3.99l1.995,1.41
				c7.963,5.627,14.513,2.828,22.095-0.41c7.802-3.332,16.644-7.107,26.834,0.09l1.995,1.408l-2.818,3.992l-1.995-1.41
				c-7.961-5.623-14.513-2.826-22.096,0.412C228.938,431.51,224.059,433.594,218.77,433.594z"/>
		</g>
		<g>
			<g>
				<path fill="#F8CA00" d="M218.874,441.492c-3.861,0-7.938-1.102-12.251-4.178l-1.989-1.418l2.836-3.979l1.989,1.418
					c7.952,5.67,14.509,2.92,22.102-0.264c7.812-3.271,16.663-6.98,26.828,0.264l1.989,1.418l-2.836,3.979l-1.989-1.418
					c-7.95-5.666-14.509-2.918-22.104,0.264C228.953,439.463,224.112,441.492,218.874,441.492z"/>
			</g>
		</g>
		<g>
			<path fill="#016635" d="M218.981,449.393c-3.899,0.002-8.015-1.115-12.367-4.246l-1.983-1.428l2.854-3.965l1.983,1.426
				c7.938,5.713,14.505,3.012,22.108-0.115c7.817-3.217,16.68-6.861,26.821,0.436l1.982,1.426l-2.853,3.967l-1.983-1.428
				c-7.941-5.713-14.508-3.01-22.109,0.117C228.972,447.418,224.168,449.393,218.981,449.393z"/>
		</g>
	</g>
</g>
</svg>
